<mxfile host="app.diagrams.net" modified="2023-09-17T22:53:31.077Z" agent="Mozilla/5.0 (Windows NT 10.0; Win64; x64) AppleWebKit/537.36 (KHTML, like Gecko) Chrome/116.0.0.0 Safari/537.36 OPR/102.0.0.0" etag="_gGWyijbKQ6rgQND4Zg2" version="21.7.2" type="github">
  <diagram name="PÃ¡gina-1" id="9Yj3AH0mVXS_HlAzgWTl">
    <mxGraphModel dx="1393" dy="797" grid="1" gridSize="10" guides="1" tooltips="1" connect="1" arrows="1" fold="1" page="1" pageScale="1" pageWidth="827" pageHeight="1169" math="0" shadow="0">
      <root>
        <mxCell id="0" />
        <mxCell id="1" parent="0" />
        <mxCell id="NPZ0NybRuFOmNarScKdx-35" style="edgeStyle=orthogonalEdgeStyle;rounded=0;orthogonalLoop=1;jettySize=auto;html=1;" parent="1" source="NPZ0NybRuFOmNarScKdx-1" target="NPZ0NybRuFOmNarScKdx-30" edge="1">
          <mxGeometry relative="1" as="geometry">
            <Array as="points">
              <mxPoint x="414" y="490" />
              <mxPoint x="414" y="490" />
            </Array>
          </mxGeometry>
        </mxCell>
        <mxCell id="NPZ0NybRuFOmNarScKdx-36" style="edgeStyle=orthogonalEdgeStyle;rounded=0;orthogonalLoop=1;jettySize=auto;html=1;" parent="1" source="NPZ0NybRuFOmNarScKdx-1" target="NPZ0NybRuFOmNarScKdx-17" edge="1">
          <mxGeometry relative="1" as="geometry" />
        </mxCell>
        <mxCell id="NPZ0NybRuFOmNarScKdx-37" style="edgeStyle=orthogonalEdgeStyle;rounded=0;orthogonalLoop=1;jettySize=auto;html=1;" parent="1" source="NPZ0NybRuFOmNarScKdx-1" target="NPZ0NybRuFOmNarScKdx-13" edge="1">
          <mxGeometry relative="1" as="geometry" />
        </mxCell>
        <mxCell id="NPZ0NybRuFOmNarScKdx-38" style="edgeStyle=orthogonalEdgeStyle;rounded=0;orthogonalLoop=1;jettySize=auto;html=1;" parent="1" source="NPZ0NybRuFOmNarScKdx-1" target="NPZ0NybRuFOmNarScKdx-5" edge="1">
          <mxGeometry relative="1" as="geometry">
            <Array as="points">
              <mxPoint x="414" y="580" />
              <mxPoint x="254" y="580" />
            </Array>
          </mxGeometry>
        </mxCell>
        <mxCell id="NPZ0NybRuFOmNarScKdx-39" style="edgeStyle=orthogonalEdgeStyle;rounded=0;orthogonalLoop=1;jettySize=auto;html=1;" parent="1" source="NPZ0NybRuFOmNarScKdx-1" target="NPZ0NybRuFOmNarScKdx-26" edge="1">
          <mxGeometry relative="1" as="geometry">
            <Array as="points">
              <mxPoint x="414" y="580" />
              <mxPoint x="574" y="580" />
            </Array>
          </mxGeometry>
        </mxCell>
        <mxCell id="NPZ0NybRuFOmNarScKdx-1" value="Veiculo&lt;br&gt;&amp;lt;&amp;lt;Abstract&amp;gt;&amp;gt;" style="swimlane;fontStyle=1;align=center;verticalAlign=top;childLayout=stackLayout;horizontal=1;startSize=40;horizontalStack=0;resizeParent=1;resizeParentMax=0;resizeLast=0;collapsible=1;marginBottom=0;whiteSpace=wrap;html=1;" parent="1" vertex="1">
          <mxGeometry x="334" y="10" width="160" height="398" as="geometry" />
        </mxCell>
        <mxCell id="NPZ0NybRuFOmNarScKdx-2" value="# codigo: int&lt;br&gt;# nome: string&lt;br&gt;# modelo: string&lt;br&gt;# cor: string&lt;br&gt;# chassi: string&lt;br&gt;# placa: string&lt;br&gt;# anoModelo: int&lt;br&gt;# anoFabricacao: int&lt;br&gt;# eixos: int&lt;br&gt;# pesoLiquido: double&lt;br&gt;# pesoTotal: double&lt;br&gt;# assentos: int&lt;br&gt;# rodas: int&lt;br&gt;# fabricante: string&lt;br&gt;# potencia: double&lt;br&gt;# tipoCombustivel: string&lt;br&gt;# nomeProprietario: string&lt;br&gt;# estadoUF: string&lt;br&gt;# cidadeUF: string&lt;br&gt;# tipoVeiculo: string&lt;br&gt;# qtdeMotores: int&lt;br&gt;# qtdeOcupantes: int" style="text;strokeColor=none;fillColor=none;align=left;verticalAlign=top;spacingLeft=4;spacingRight=4;overflow=hidden;rotatable=0;points=[[0,0.5],[1,0.5]];portConstraint=eastwest;whiteSpace=wrap;html=1;" parent="NPZ0NybRuFOmNarScKdx-1" vertex="1">
          <mxGeometry y="40" width="160" height="324" as="geometry" />
        </mxCell>
        <mxCell id="NPZ0NybRuFOmNarScKdx-3" value="" style="line;strokeWidth=1;fillColor=none;align=left;verticalAlign=middle;spacingTop=-1;spacingLeft=3;spacingRight=3;rotatable=0;labelPosition=right;points=[];portConstraint=eastwest;strokeColor=inherit;" parent="NPZ0NybRuFOmNarScKdx-1" vertex="1">
          <mxGeometry y="364" width="160" height="8" as="geometry" />
        </mxCell>
        <mxCell id="NPZ0NybRuFOmNarScKdx-4" value="+ Veiculo(int, string ... int)" style="text;strokeColor=none;fillColor=none;align=left;verticalAlign=top;spacingLeft=4;spacingRight=4;overflow=hidden;rotatable=0;points=[[0,0.5],[1,0.5]];portConstraint=eastwest;whiteSpace=wrap;html=1;" parent="NPZ0NybRuFOmNarScKdx-1" vertex="1">
          <mxGeometry y="372" width="160" height="26" as="geometry" />
        </mxCell>
        <mxCell id="NPZ0NybRuFOmNarScKdx-5" value="Aviao" style="swimlane;fontStyle=1;align=center;verticalAlign=top;childLayout=stackLayout;horizontal=1;startSize=26;horizontalStack=0;resizeParent=1;resizeParentMax=0;resizeLast=0;collapsible=1;marginBottom=0;whiteSpace=wrap;html=1;" parent="1" vertex="1">
          <mxGeometry x="174" y="600" width="160" height="104" as="geometry" />
        </mxCell>
        <mxCell id="NPZ0NybRuFOmNarScKdx-6" value="- codigoRenavam: string&lt;br&gt;- portas: int" style="text;strokeColor=none;fillColor=none;align=left;verticalAlign=top;spacingLeft=4;spacingRight=4;overflow=hidden;rotatable=0;points=[[0,0.5],[1,0.5]];portConstraint=eastwest;whiteSpace=wrap;html=1;" parent="NPZ0NybRuFOmNarScKdx-5" vertex="1">
          <mxGeometry y="26" width="160" height="44" as="geometry" />
        </mxCell>
        <mxCell id="NPZ0NybRuFOmNarScKdx-7" value="" style="line;strokeWidth=1;fillColor=none;align=left;verticalAlign=middle;spacingTop=-1;spacingLeft=3;spacingRight=3;rotatable=0;labelPosition=right;points=[];portConstraint=eastwest;strokeColor=inherit;" parent="NPZ0NybRuFOmNarScKdx-5" vertex="1">
          <mxGeometry y="70" width="160" height="8" as="geometry" />
        </mxCell>
        <mxCell id="NPZ0NybRuFOmNarScKdx-8" value="+ Aviao(..., string, int)" style="text;strokeColor=none;fillColor=none;align=left;verticalAlign=top;spacingLeft=4;spacingRight=4;overflow=hidden;rotatable=0;points=[[0,0.5],[1,0.5]];portConstraint=eastwest;whiteSpace=wrap;html=1;" parent="NPZ0NybRuFOmNarScKdx-5" vertex="1">
          <mxGeometry y="78" width="160" height="26" as="geometry" />
        </mxCell>
        <mxCell id="NPZ0NybRuFOmNarScKdx-13" value="Carro&lt;br&gt;" style="swimlane;fontStyle=1;align=center;verticalAlign=top;childLayout=stackLayout;horizontal=1;startSize=26;horizontalStack=0;resizeParent=1;resizeParentMax=0;resizeLast=0;collapsible=1;marginBottom=0;whiteSpace=wrap;html=1;" parent="1" vertex="1">
          <mxGeometry x="174" y="460" width="160" height="104" as="geometry" />
        </mxCell>
        <mxCell id="NPZ0NybRuFOmNarScKdx-14" value="- codigoRenavam: string&lt;br&gt;- portas: int" style="text;strokeColor=none;fillColor=none;align=left;verticalAlign=top;spacingLeft=4;spacingRight=4;overflow=hidden;rotatable=0;points=[[0,0.5],[1,0.5]];portConstraint=eastwest;whiteSpace=wrap;html=1;" parent="NPZ0NybRuFOmNarScKdx-13" vertex="1">
          <mxGeometry y="26" width="160" height="44" as="geometry" />
        </mxCell>
        <mxCell id="NPZ0NybRuFOmNarScKdx-15" value="" style="line;strokeWidth=1;fillColor=none;align=left;verticalAlign=middle;spacingTop=-1;spacingLeft=3;spacingRight=3;rotatable=0;labelPosition=right;points=[];portConstraint=eastwest;strokeColor=inherit;" parent="NPZ0NybRuFOmNarScKdx-13" vertex="1">
          <mxGeometry y="70" width="160" height="8" as="geometry" />
        </mxCell>
        <mxCell id="NPZ0NybRuFOmNarScKdx-16" value="+ Carro(..., string, int)" style="text;strokeColor=none;fillColor=none;align=left;verticalAlign=top;spacingLeft=4;spacingRight=4;overflow=hidden;rotatable=0;points=[[0,0.5],[1,0.5]];portConstraint=eastwest;whiteSpace=wrap;html=1;" parent="NPZ0NybRuFOmNarScKdx-13" vertex="1">
          <mxGeometry y="78" width="160" height="26" as="geometry" />
        </mxCell>
        <mxCell id="NPZ0NybRuFOmNarScKdx-17" value="Onibus&lt;br&gt;" style="swimlane;fontStyle=1;align=center;verticalAlign=top;childLayout=stackLayout;horizontal=1;startSize=26;horizontalStack=0;resizeParent=1;resizeParentMax=0;resizeLast=0;collapsible=1;marginBottom=0;whiteSpace=wrap;html=1;" parent="1" vertex="1">
          <mxGeometry x="494" y="460" width="160" height="104" as="geometry" />
        </mxCell>
        <mxCell id="NPZ0NybRuFOmNarScKdx-18" value="- codigoRenavam: string&lt;br&gt;- portas: int" style="text;strokeColor=none;fillColor=none;align=left;verticalAlign=top;spacingLeft=4;spacingRight=4;overflow=hidden;rotatable=0;points=[[0,0.5],[1,0.5]];portConstraint=eastwest;whiteSpace=wrap;html=1;" parent="NPZ0NybRuFOmNarScKdx-17" vertex="1">
          <mxGeometry y="26" width="160" height="44" as="geometry" />
        </mxCell>
        <mxCell id="NPZ0NybRuFOmNarScKdx-19" value="" style="line;strokeWidth=1;fillColor=none;align=left;verticalAlign=middle;spacingTop=-1;spacingLeft=3;spacingRight=3;rotatable=0;labelPosition=right;points=[];portConstraint=eastwest;strokeColor=inherit;" parent="NPZ0NybRuFOmNarScKdx-17" vertex="1">
          <mxGeometry y="70" width="160" height="8" as="geometry" />
        </mxCell>
        <mxCell id="NPZ0NybRuFOmNarScKdx-20" value="+ Onibus(..., string, int)" style="text;strokeColor=none;fillColor=none;align=left;verticalAlign=top;spacingLeft=4;spacingRight=4;overflow=hidden;rotatable=0;points=[[0,0.5],[1,0.5]];portConstraint=eastwest;whiteSpace=wrap;html=1;" parent="NPZ0NybRuFOmNarScKdx-17" vertex="1">
          <mxGeometry y="78" width="160" height="26" as="geometry" />
        </mxCell>
        <mxCell id="NPZ0NybRuFOmNarScKdx-26" value="Caminhao" style="swimlane;fontStyle=1;align=center;verticalAlign=top;childLayout=stackLayout;horizontal=1;startSize=26;horizontalStack=0;resizeParent=1;resizeParentMax=0;resizeLast=0;collapsible=1;marginBottom=0;whiteSpace=wrap;html=1;" parent="1" vertex="1">
          <mxGeometry x="494" y="600" width="160" height="104" as="geometry" />
        </mxCell>
        <mxCell id="NPZ0NybRuFOmNarScKdx-27" value="- codigoRenavam: string&lt;br&gt;- portas: int" style="text;strokeColor=none;fillColor=none;align=left;verticalAlign=top;spacingLeft=4;spacingRight=4;overflow=hidden;rotatable=0;points=[[0,0.5],[1,0.5]];portConstraint=eastwest;whiteSpace=wrap;html=1;" parent="NPZ0NybRuFOmNarScKdx-26" vertex="1">
          <mxGeometry y="26" width="160" height="44" as="geometry" />
        </mxCell>
        <mxCell id="NPZ0NybRuFOmNarScKdx-28" value="" style="line;strokeWidth=1;fillColor=none;align=left;verticalAlign=middle;spacingTop=-1;spacingLeft=3;spacingRight=3;rotatable=0;labelPosition=right;points=[];portConstraint=eastwest;strokeColor=inherit;" parent="NPZ0NybRuFOmNarScKdx-26" vertex="1">
          <mxGeometry y="70" width="160" height="8" as="geometry" />
        </mxCell>
        <mxCell id="NPZ0NybRuFOmNarScKdx-29" value="+ Caminhao(..., string, int)" style="text;strokeColor=none;fillColor=none;align=left;verticalAlign=top;spacingLeft=4;spacingRight=4;overflow=hidden;rotatable=0;points=[[0,0.5],[1,0.5]];portConstraint=eastwest;whiteSpace=wrap;html=1;" parent="NPZ0NybRuFOmNarScKdx-26" vertex="1">
          <mxGeometry y="78" width="160" height="26" as="geometry" />
        </mxCell>
        <mxCell id="NPZ0NybRuFOmNarScKdx-30" value="Motocicleta" style="swimlane;fontStyle=1;align=center;verticalAlign=top;childLayout=stackLayout;horizontal=1;startSize=26;horizontalStack=0;resizeParent=1;resizeParentMax=0;resizeLast=0;collapsible=1;marginBottom=0;whiteSpace=wrap;html=1;" parent="1" vertex="1">
          <mxGeometry x="334" y="730" width="160" height="86" as="geometry" />
        </mxCell>
        <mxCell id="NPZ0NybRuFOmNarScKdx-31" value="- codigoRenavam: string" style="text;strokeColor=none;fillColor=none;align=left;verticalAlign=top;spacingLeft=4;spacingRight=4;overflow=hidden;rotatable=0;points=[[0,0.5],[1,0.5]];portConstraint=eastwest;whiteSpace=wrap;html=1;" parent="NPZ0NybRuFOmNarScKdx-30" vertex="1">
          <mxGeometry y="26" width="160" height="26" as="geometry" />
        </mxCell>
        <mxCell id="NPZ0NybRuFOmNarScKdx-32" value="" style="line;strokeWidth=1;fillColor=none;align=left;verticalAlign=middle;spacingTop=-1;spacingLeft=3;spacingRight=3;rotatable=0;labelPosition=right;points=[];portConstraint=eastwest;strokeColor=inherit;" parent="NPZ0NybRuFOmNarScKdx-30" vertex="1">
          <mxGeometry y="52" width="160" height="8" as="geometry" />
        </mxCell>
        <mxCell id="NPZ0NybRuFOmNarScKdx-33" value="+ Motocicleta(..., string)" style="text;strokeColor=none;fillColor=none;align=left;verticalAlign=top;spacingLeft=4;spacingRight=4;overflow=hidden;rotatable=0;points=[[0,0.5],[1,0.5]];portConstraint=eastwest;whiteSpace=wrap;html=1;" parent="NPZ0NybRuFOmNarScKdx-30" vertex="1">
          <mxGeometry y="60" width="160" height="26" as="geometry" />
        </mxCell>
      </root>
    </mxGraphModel>
  </diagram>
</mxfile>
